<svg version="1.1" viewBox="0.0 0.0 200.1233595800525 194.53543307086613" fill="none" stroke="none" stroke-linecap="square" stroke-miterlimit="10" xmlns:xlink="http://www.w3.org/1999/xlink" xmlns="http://www.w3.org/2000/svg"><clipPath id="p.0"><path d="m0 0l200.12335 0l0 194.53543l-200.12335 0l0 -194.53543z" clip-rule="nonzero"/></clipPath><g clip-path="url(#p.0)"><path fill="#000000" fill-opacity="0.0" d="m0 0l200.12335 0l0 194.53543l-200.12335 0z" fill-rule="evenodd"/><path fill="#000000" fill-opacity="0.0" d="m122.98163 122.98163l198.99213 0l0 42.015747l-198.99213 0z" fill-rule="evenodd"/><path fill="#e4007c" d="m0 97.25984l0 0c0 -53.715126 44.545906 -97.25984 99.49606 -97.25984l0 0c26.387993 0 51.695206 10.246989 70.35434 28.486748c18.659134 18.239758 29.141724 42.97818 29.141724 68.773094l0 0c0 53.715134 -44.5459 97.25984 -99.49606 97.25984l0 0c-54.950157 0 -99.49606 -43.54471 -99.49606 -97.25984z" fill-rule="evenodd"/></g></svg>