<svg version="1.1" viewBox="0.0 0.0 100.0 100.0" fill="none" stroke="none" stroke-linecap="square" stroke-miterlimit="10" xmlns:xlink="http://www.w3.org/1999/xlink" xmlns="http://www.w3.org/2000/svg"><clipPath id="p.0"><path d="m0 0l100.0 0l0 100.0l-100.0 0l0 -100.0z" clip-rule="nonzero"/></clipPath><g clip-path="url(#p.0)"><path fill="#000000" fill-opacity="0.0" d="m0 0l100.0 0l0 100.0l-100.0 0z" fill-rule="evenodd"/><path fill="#000000" fill-opacity="0.0" d="m16.775446 7.929134c-1.5422964 6.309816 2.3815765 12.755032 3.0890236 19.186623c0.9315872 8.469315 -1.2475967 17.001518 -2.5747623 25.427143c-0.92515564 5.8734207 0.8582535 11.849518 0.8582535 17.782822" fill-rule="evenodd"/><path stroke="#000000" stroke-width="1.0" stroke-linejoin="round" stroke-linecap="butt" d="m16.775446 7.929134c-1.5422964 6.309816 2.3815765 12.755032 3.0890236 19.186623c0.9315872 8.469315 -1.2475967 17.001518 -2.5747623 25.427143c-0.92515564 5.8734207 0.8582535 11.849518 0.8582535 17.782822" fill-rule="evenodd"/><path fill="#000000" fill-opacity="0.0" d="m18.489628 69.83865c-3.720708 2.538437 -7.875722 5.1088104 -9.954195 8.891808" fill-rule="evenodd"/><path stroke="#000000" stroke-width="1.0" stroke-linejoin="round" stroke-linecap="butt" d="m18.489628 69.83865c-3.720708 2.538437 -7.875722 5.1088104 -9.954195 8.891808" fill-rule="evenodd"/><path fill="#000000" fill-opacity="0.0" d="m18.320234 70.14968c2.6766129 2.4713135 4.2530785 5.7858353 6.5254803 8.580971" fill-rule="evenodd"/><path stroke="#000000" stroke-width="1.0" stroke-linejoin="round" stroke-linecap="butt" d="m18.320234 70.14968c2.6766129 2.4713135 4.2530785 5.7858353 6.5254803 8.580971" fill-rule="evenodd"/><path fill="#000000" fill-opacity="0.0" d="m8.073491 74.69292c0 1.3545609 0.1617279 2.7170715 0.4671917 4.036743" fill-rule="evenodd"/><path stroke="#000000" stroke-width="1.0" stroke-linejoin="round" stroke-linecap="butt" d="m8.073491 74.69292c0 1.3545609 0.1617279 2.7170715 0.4671917 4.036743" fill-rule="evenodd"/><path fill="#000000" fill-opacity="0.0" d="m12.626474 77.471016c-1.0046797 0.9085083 -2.5545511 1.2259216 -4.5519514 0.9845352" fill-rule="evenodd"/><path stroke="#000000" stroke-width="1.0" stroke-linejoin="round" stroke-linecap="butt" d="m12.626474 77.471016c-1.0046797 0.9085083 -2.5545511 1.2259216 -4.5519514 0.9845352" fill-rule="evenodd"/><path fill="#000000" fill-opacity="0.0" d="m20.865564 77.77367c1.2864304 0.42411804 2.6310425 0.69712067 3.9799747 0.8202133" fill-rule="evenodd"/><path stroke="#000000" stroke-width="1.0" stroke-linejoin="round" stroke-linecap="butt" d="m20.865564 77.77367c1.2864304 0.42411804 2.6310425 0.69712067 3.9799747 0.8202133" fill-rule="evenodd"/><path fill="#000000" fill-opacity="0.0" d="m25.677309 74.46129c0.35042572 1.3085022 -0.07382393 2.832672 -1.1994743 4.5002975" fill-rule="evenodd"/><path stroke="#000000" stroke-width="1.0" stroke-linejoin="round" stroke-linecap="butt" d="m25.677309 74.46129c0.35042572 1.3085022 -0.07382393 2.832672 -1.1994743 4.5002975" fill-rule="evenodd"/></g></svg>