<?xml version="1.0" standalone="no"?>
<!DOCTYPE svg PUBLIC "-//W3C//DTD SVG 20010904//EN"
 "http://www.w3.org/TR/2001/REC-SVG-20010904/DTD/svg10.dtd">
<svg version="1.0" xmlns="http://www.w3.org/2000/svg"
 width="640.000000pt" height="1024.000000pt" viewBox="0 0 640.000000 1024.000000"
 preserveAspectRatio="xMidYMid meet">

<g transform="translate(0.000000,1024.000000) scale(0.100000,-0.100000)"
fill="#000000" stroke="none">
<path d="M1105 9589 c-100 -13 -243 -54 -338 -96 -387 -170 -652 -499 -743
-924 -25 -118 -26 -372 -1 -489 73 -340 266 -628 549 -817 l68 -45 0 -571 0
-572 960 -960 960 -960 0 -566 0 -566 -57 -38 c-380 -250 -602 -682 -580
-1125 10 -195 52 -352 143 -530 175 -342 492 -582 884 -666 119 -26 381 -26
500 0 392 84 709 324 884 666 91 178 133 335 143 530 22 443 -200 875 -579
1125 l-58 38 0 566 0 566 960 960 960 960 0 572 0 571 68 45 c283 189 476 477
549 817 25 117 24 371 -1 490 -112 519 -489 896 -1009 1007 -114 24 -380 24
-494 0 -261 -56 -478 -172 -658 -352 -181 -183 -295 -395 -351 -656 -25 -118
-26 -372 -1 -489 73 -340 266 -628 550 -817 l67 -45 0 -407 0 -407 -635 -634
c-349 -349 -640 -635 -645 -635 -5 0 -296 286 -645 635 l-635 634 0 407 0 407
68 45 c283 189 476 477 549 817 25 117 24 371 -1 490 -111 517 -491 898 -1004
1005 -92 20 -330 28 -427 14z m370 -524 c257 -68 480 -292 552 -555 24 -89 24
-289 -1 -380 -56 -211 -213 -402 -411 -499 -120 -60 -189 -75 -335 -75 -146 0
-215 15 -335 75 -152 75 -279 202 -354 354 -51 103 -70 177 -78 295 -13 218
65 419 227 581 114 114 259 191 411 218 73 13 250 5 324 -14z m3840 0 c257
-68 480 -292 552 -555 24 -89 24 -289 -1 -380 -56 -211 -213 -402 -411 -499
-120 -60 -189 -75 -335 -75 -146 0 -215 15 -335 75 -152 75 -279 202 -354 354
-51 103 -70 177 -78 295 -13 218 65 419 227 581 114 114 259 191 411 218 73
13 250 5 324 -14z m-1920 -6400 c258 -69 481 -293 551 -555 25 -89 25 -291 0
-380 -71 -263 -292 -484 -556 -556 -90 -25 -290 -25 -380 0 -211 57 -404 215
-499 409 -60 123 -75 191 -75 337 0 146 15 214 74 335 112 227 331 388 585
429 55 8 239 -3 300 -19z"/>
</g>
</svg>
