<svg width="83" height="309" viewBox="0 0 83 309" fill="none" xmlns="http://www.w3.org/2000/svg">
<path d="M42.1345 1.0957C35.5026 28.2279 52.3752 55.9423 55.4173 83.5982C59.4231 120.016 50.0526 156.705 44.3458 192.935C40.3676 218.191 48.0363 243.888 48.0363 269.401M49.5054 267.307C33.5064 278.222 15.6398 289.275 6.70236 305.542M48.777 268.645C60.2864 279.271 67.0652 293.524 76.8365 305.543M2.52289 289.16C2.9115 294.766 4.26092 300.338 6.44994 305.674M22.7432 299.865C18.8062 303.831 12.6626 305.289 4.70299 304.37M60.883 300.466C66.2358 302.982 71.9226 304.884 77.709 306.15M80.0462 291C81.3743 295.652 79.7664 301.071 75.5 307" stroke="black" stroke-width="4.3" stroke-miterlimit="10" stroke-linejoin="round"/>
</svg>
