<svg width="82" height="308" viewBox="0 0 82 308" fill="none" xmlns="http://www.w3.org/2000/svg">
<path d="M40.1343 1.0957C33.5024 28.2279 50.3751 55.9423 53.4171 83.5982C57.4229 120.016 48.0525 156.705 42.3456 192.935C38.3675 218.191 46.0361 243.888 46.0361 269.401M47.5052 267.307C31.5062 278.222 13.6396 289.275 4.70216 305.542M46.7768 268.645C58.2862 279.272 65.065 293.524 74.8364 305.543M2.71606 288.179C2.71606 294.004 3.41149 299.862 4.72499 305.537M22.2936 300.126C17.9734 304.033 11.309 305.398 2.72016 304.36M57.7221 301.426C63.2537 303.25 69.0356 304.424 74.836 304.953M78.4122 287.184C79.919 292.811 78.0947 299.365 73.2544 306.535" stroke="black" stroke-width="4.3" stroke-miterlimit="10" stroke-linejoin="round"/>
</svg>
