<svg width="111" height="222" viewBox="0 0 111 222" fill="none" xmlns="http://www.w3.org/2000/svg">
<path d="M103.351 217.657C95.586 212.879 93.143 212.401 80.9878 217.083M103.351 217.657C97.2642 212.245 95.3112 205.513 98.108 195.4M103.351 217.657C98.3745 213.754 86.6935 204.263 79.7827 197.53M71.23 189.733L60.8565 180.662M53.1948 174.169C51.2092 172.664 46.3712 168.866 42.9043 165.722M34.7374 160.074C32.0344 157.821 26.1135 153.006 24.0546 151.775M15.5256 144.955L4.30955 137.293L18.1456 119.737M28.7258 106.357L41.1308 90.4328M50.2814 77.9199L62.7982 62.0623M71.6392 50.3214L82.5289 36.1696M94.3163 21.0241C97.0479 17.5555 103.387 9.30514 106.891 4.05338" stroke="black" stroke-width="7.92396" stroke-miterlimit="1.5" stroke-linecap="round" stroke-linejoin="round"/>
</svg>
