<svg width="44" height="289" viewBox="0 0 44 289" fill="none" xmlns="http://www.w3.org/2000/svg">
<path d="M22.0071 284.341C22.7125 276.243 16.7336 271.14 6.85917 265.324M22.0071 284.341C22.4802 275.784 28.925 268.234 39.1595 266.754M22.0071 284.341C21.0088 283.94 24.5322 269.719 23.879 252.285M23.7786 237.005L23.4941 221.006M22.727 206.854L22.2368 193.779M21.7896 180.425L21.105 165.103M20.0746 153.035L19.3489 138.298M18.748 126.13L17.5299 111.711M16.4078 98.2626L15.5998 84.6947M14.6685 72.8803L12.8247 59.0046M10.9436 46.3253C10.7732 43.1803 10.2192 35.9119 9.3666 31.9983M7.90227 21.0859L4.5105 4.16406" stroke="black" stroke-width="7.94748" stroke-miterlimit="1.5" stroke-linecap="round" stroke-linejoin="round"/>
</svg>
