<svg width="38" height="223" viewBox="0 0 38 223" fill="none" xmlns="http://www.w3.org/2000/svg">
<path d="M25.4809 219.161C23.9541 213.011 27.7304 208.765 34.2918 203.748M25.4809 219.161C24.0684 212.646 18.3757 207.246 10.6418 206.705M25.4809 219.161C26.1675 218.796 21.8009 208.128 20.1159 194.762M18.2908 183.075L16.5123 170.829M15.3193 159.965L14.0558 149.941M12.726 139.706L11.3267 127.954M10.5869 118.669L9.29062 107.361M8.22171 98.0244L7.32813 86.931M6.48445 76.5851L5.39417 66.1661M4.61286 57.0806L4.24838 46.3665M4.06022 36.5649C3.79505 34.1508 3.30035 28.5623 3.44291 25.5213M3.16687 17.0945L3.5658 3.9624" stroke="black" stroke-width="6.29803" stroke-miterlimit="1.5" stroke-linecap="round" stroke-linejoin="round"/>
</svg>
