<svg width="80" height="176" viewBox="0 0 80 176" fill="none" xmlns="http://www.w3.org/2000/svg">
<path d="M13.573 161.887C20.7909 165.577 30.6168 170.336 38.268 172.716M38.268 172.716C39.1494 172.991 39.1629 166.062 39.1365 165.742C38.5648 158.733 37.0934 152.014 35.4468 145.199M38.268 172.716C4.4028 144.54 -4.85403 100.973 11.7232 74.2966C13.3662 71.6526 15.1572 68.7767 17.1964 66.0726M17.1964 66.0726C20.4439 61.7662 24.3209 57.8956 29.2321 56.0919C33.7646 54.4274 40.3703 54.1684 44.2179 57.442C51.4053 63.5575 46.9778 75.2647 38.0976 77.2313C30.2939 78.9597 19.8319 73.5277 17.1964 66.0726ZM17.1964 66.0726C17.1408 65.9153 17.0887 65.7572 17.0402 65.5982C5.32724 27.2193 44.0699 0.296595 76.7894 3.05751" stroke="black" stroke-width="5.58817" stroke-miterlimit="1.5" stroke-linecap="round" stroke-linejoin="round"/>
</svg>
