<svg width="44" height="314" viewBox="0 0 44 314" fill="none" xmlns="http://www.w3.org/2000/svg">
<path d="M24.657 309.653C23.2463 300.92 29.2547 295.034 39.3884 288.142M24.657 309.653C23.4588 300.408 15.9295 292.611 4.82066 291.617M24.657 309.653C25.6966 309.159 20.7662 293.959 20.0614 275.027M18.9366 258.463L17.9517 241.11M15.6631 225.748L15.1348 211.549M14.9924 197.047L14.4917 180.403M14.1459 167.269L13.9412 159.262L13.7365 151.256M14.3983 136.522L13.989 120.83M13.8453 106.193L13.9653 92.4037M15.466 78.5712L16.3265 63.4251M17.3384 51.0709C17.2677 47.6527 17.2763 39.7434 17.8761 35.4517M18.5683 23.5393L20.8453 5" stroke="black" stroke-width="8.68349" stroke-miterlimit="1.5" stroke-linecap="round" stroke-linejoin="round"/>
</svg>
