<svg width="41" height="40" viewBox="0 0 41 40" fill="none" xmlns="http://www.w3.org/2000/svg">
<path fill-rule="evenodd" clip-rule="evenodd" d="M0 19.8034C0 8.86627 9.07013 0 20.2587 0C25.6316 0 30.7845 2.08642 34.5838 5.80027C38.383 9.51412 40.5174 14.5512 40.5174 19.8034C40.5174 30.7405 31.4473 39.6067 20.2587 39.6067C9.07013 39.6067 0 30.7405 0 19.8034Z" fill="#FF385C"/>
<path d="M31.7787 22.1436C31.8875 22.1066 32.0484 22.0881 32.2614 22.0881C32.8657 22.0881 33.1679 22.4794 33.1679 23.2619C33.1679 23.6903 33.0741 24.0515 32.8866 24.3455C32.7013 24.6372 32.4131 24.819 32.0218 24.8908C30.4034 25.1918 28.8116 25.5298 27.2464 25.9049L27.1665 26.5439C26.6687 30.047 25.6766 32.6379 24.1902 34.3165C22.7061 35.9974 20.8526 36.8379 18.6299 36.8379C17.155 36.8379 16.0124 36.4779 15.2021 35.7578C14.394 35.0377 13.99 34.1174 13.99 32.9968C13.99 31.1306 14.8258 29.4693 16.4975 28.013C18.1692 26.5543 20.7033 25.2647 24.0999 24.1441L24.6313 20.3828C24.703 19.9545 24.7922 19.3849 24.8987 18.6741C24.0628 20.8806 22.9955 22.5268 21.6966 23.6127C20.4 24.6963 18.9517 25.2381 17.3518 25.2381C15.8214 25.2381 14.6556 24.7715 13.8545 23.8385C13.0557 22.9031 12.6564 21.6979 12.6564 20.2231C12.6564 19.5655 12.727 18.8408 12.8682 18.049C13.0118 17.2571 13.234 16.1851 13.535 14.833C13.8036 13.6058 14.0039 12.6288 14.1359 11.9018C14.2701 11.1724 14.3373 10.523 14.3373 9.95341C14.3373 9.09905 14.0085 8.67187 13.351 8.67187C12.8346 8.67187 12.2245 8.9254 11.5207 9.43246C10.8191 9.93952 10.0771 10.7175 9.29449 11.7663C9.04675 12.1044 8.77123 12.2734 8.46792 12.2734C8.22018 12.2734 8.00254 12.1541 7.81499 11.9157C7.62745 11.6749 7.53368 11.4028 7.53368 11.0995C7.53368 10.5484 7.78258 9.92678 8.28038 9.2345C10.0956 6.7432 12.2211 5.49755 14.6568 5.49755C15.7404 5.49755 16.5889 5.82749 17.2025 6.48736C17.8161 7.14491 18.1229 8.11388 18.1229 9.39426C18.1229 10.3181 18.0383 11.265 17.8693 12.2352C17.7003 13.203 17.4468 14.4336 17.1087 15.927C16.8957 16.8161 16.736 17.5326 16.6295 18.0768C16.523 18.6185 16.4697 19.0666 16.4697 19.4208C16.4697 20.3284 16.6295 20.9779 16.949 21.3692C17.2708 21.7604 17.8311 21.9561 18.6299 21.9561C19.5908 21.9561 20.5736 21.427 21.5785 20.3689C22.5833 19.3108 23.4898 17.7063 24.2978 15.5554C25.1082 13.4021 25.6905 10.7696 26.0448 7.65776C26.1351 6.87749 26.34 6.32297 26.6595 5.99419C26.979 5.6631 27.4409 5.49755 28.0452 5.49755C29.2909 5.49755 29.9137 6.12038 29.9137 7.36602C29.9137 7.57904 29.9044 7.74805 29.8859 7.87308C29.5131 10.5218 29.167 12.9136 28.8475 15.0483C28.6692 16.3287 28.477 17.6449 28.271 18.9971C28.0672 20.3469 27.8681 21.7153 27.6736 23.1022C28.9702 22.7479 30.3385 22.4284 31.7787 22.1436ZM23.697 26.9433C19.3951 28.4367 17.2442 30.2508 17.2442 32.3855C17.2442 32.8833 17.3993 33.2966 17.7096 33.6254C18.0221 33.9541 18.4621 34.1185 19.0293 34.1185C21.5021 34.1185 23.0499 31.7893 23.6727 27.1309L23.697 26.9433Z" fill="white"/>
</svg>
