<svg width="62" height="414" viewBox="0 0 62 414" fill="none" xmlns="http://www.w3.org/2000/svg">
<path d="M30.8408 408.06C31.8515 396.457 23.2851 389.146 9.13721 380.812M30.8408 408.06C31.5187 395.799 40.7526 384.981 55.4163 382.861M30.8408 408.06C29.4104 407.484 34.4588 387.11 33.5227 362.13M33.379 340.237L32.9713 317.315M31.8722 297.038L31.1699 278.304M30.5291 259.171L29.5482 237.218M28.072 219.927L27.0322 198.812M26.1712 181.379L24.426 160.72M22.8182 141.451L21.6606 122.011M20.3262 105.084L17.6845 85.203M14.9893 67.0364C14.7451 62.5304 13.9514 52.1164 12.7298 46.5092M10.6317 30.8741L5.77209 6.62891" stroke="black" stroke-width="11.3869" stroke-miterlimit="1.5" stroke-linecap="round" stroke-linejoin="round"/>
</svg>
