<svg version="1.1" viewBox="0.0 0.0 200.1233595800525 194.53543307086613" fill="none" stroke="none" stroke-linecap="square" stroke-miterlimit="10" xmlns:xlink="http://www.w3.org/1999/xlink" xmlns="http://www.w3.org/2000/svg"><clipPath id="p.0"><path d="m0 0l200.12335 0l0 194.53543l-200.12335 0l0 -194.53543z" clip-rule="nonzero"/></clipPath><g clip-path="url(#p.0)"><path fill="#000000" fill-opacity="0.0" d="m0 0l200.12335 0l0 194.53543l-200.12335 0z" fill-rule="evenodd"/><path fill="#000000" fill-opacity="0.0" d="m122.98163 122.98163l198.99213 0l0 42.015747l-198.99213 0z" fill-rule="evenodd"/><path fill="#ff385c" d="m0 97.25984l0 0c0 -53.715126 44.545906 -97.25984 99.49606 -97.25984l0 0c26.387993 0 51.695206 10.246989 70.35434 28.486748c18.659134 18.239758 29.141724 42.97818 29.141724 68.773094l0 0c0 53.715134 -44.5459 97.25984 -99.49606 97.25984l0 0c-54.950157 0 -99.49606 -43.54471 -99.49606 -97.25984z" fill-rule="evenodd"/><path fill="#000000" fill-opacity="0.0" d="m33.228348 8.461943l151.93701 0l0 164.8189l-151.93701 0z" fill-rule="evenodd"/><path fill="#ffffff" d="m151.18147 105.78694q0.734375 -0.25 2.171875 -0.25q4.078125 0 4.078125 5.28125q0 2.890625 -1.265625 4.875q-1.25 1.96875 -3.890625 2.453125q-10.921875 2.03125 -21.484375 4.5625l-0.359375 2.875q-3.359375 23.640625 -13.390625 34.96875q-10.015625 11.34375 -25.015625 11.34375q-9.953125 0 -15.421875 -4.859375q-5.453125 -4.859375 -5.453125 -12.421875q0 -12.59375 11.28125 -22.421875q11.28125 -9.84375 34.203125 -17.40625l2.390625 -16.921875q0.484375 -2.890625 1.203125 -7.6875q-5.640625 14.890625 -14.40625 22.21875q-8.75 7.3125 -19.546875 7.3125q-10.328125 0 -15.734375 -6.296875q-5.390625 -6.3125 -5.390625 -16.265625q0 -4.4375 0.953125 -9.78125q0.96875 -5.34375 3.0 -14.46875q1.8125 -8.28125 2.703125 -13.187504q0.90625 -4.921875 0.90625 -8.765625q0 -5.765625 -4.4375 -5.765625q-3.484375 0 -8.234375 3.421875q-4.734375 3.421875 -10.015625 10.5q-1.671875 2.28125 -3.71875 2.28125q-1.671875 0 -2.9375 -1.609375q-1.265625 -1.625 -1.265625 -3.671875q0 -3.71875 3.359375 -8.390625q12.25 -16.812498 28.6875 -16.812498q7.3125 0 11.453125 4.453123q4.140625 4.4375 4.140625 13.078125q0 6.234375 -1.140625 12.78125q-1.140625 6.531254 -3.421875 16.609379q-1.4375 6.0 -2.15625 9.671875q-0.71875 3.65625 -0.71875 6.046875q0 6.125 2.15625 8.765625q2.171875 2.640625 7.5625 2.640625q6.484375 0 13.265625 -7.140625q6.78125 -7.140625 12.234375 -21.65625q5.46875 -14.531254 7.859375 -35.531254q0.609375 -5.265625 2.765625 -7.484375q2.15625 -2.234373 6.234375 -2.234373q8.40625 0 8.40625 8.406248q0 1.4375 -0.125 2.28125q-2.515625 17.875 -4.671875 32.281254q-1.203125 8.640625 -2.59375 17.765625q-1.375 9.109375 -2.6875 18.46875q8.75 -2.390625 18.46875 -4.3125zm-36.359375 21.59375q-29.03125 10.078125 -29.03125 24.484375q0 3.359375 2.09375 5.578125q2.109375 2.21875 5.9375 2.21875q16.6875 0 20.890625 -31.4375l0.109375 -0.84375z" fill-rule="nonzero"/></g></svg>