<svg version="1.1" viewBox="0.0 0.0 200.1233595800525 194.53543307086613" fill="none" stroke="none" stroke-linecap="square" stroke-miterlimit="10" xmlns:xlink="http://www.w3.org/1999/xlink" xmlns="http://www.w3.org/2000/svg"><clipPath id="p.0"><path d="m0 0l200.12335 0l0 194.53543l-200.12335 0l0 -194.53543z" clip-rule="nonzero"/></clipPath><g clip-path="url(#p.0)"><path fill="#000000" fill-opacity="0.0" d="m0 0l200.12335 0l0 194.53543l-200.12335 0z" fill-rule="evenodd"/><path fill="#000000" fill-opacity="0.0" d="m122.98163 122.98163l198.99213 0l0 42.015747l-198.99213 0z" fill-rule="evenodd"/><path fill="#ff385c" d="m0 97.25984l0 0c0 -53.715126 44.545906 -97.25984 99.49606 -97.25984l0 0c26.387993 0 51.695206 10.246989 70.35434 28.486748c18.659134 18.239758 29.141724 42.97818 29.141724 68.773094l0 0c0 53.715134 -44.5459 97.25984 -99.49606 97.25984l0 0c-54.950157 0 -99.49606 -43.54471 -99.49606 -97.25984z" fill-rule="evenodd"/><path fill="#000000" fill-opacity="0.0" d="m20.662727 52.02362l157.66928 0l0 90.48819l-157.66928 0z" fill-rule="evenodd"/><path fill="#ffffff" d="m46.256477 101.734245l-15.125 -25.390625l11.078125 0l9.265625 15.890625l9.6875 -15.890625l11.03125 0l-15.546875 25.390625l0 15.609375l-10.390625 0l0 -15.609375zm46.931747 16.484375q-9.265625 0 -13.96875 -4.953125q-4.6875 -4.953125 -4.6875 -13.109375l0 -23.8125l10.390625 0l0 23.9375q0 4.09375 2.1875 6.21875q2.203125 2.109375 6.078125 2.109375q3.875 0 6.03125 -2.109375q2.171875 -2.125 2.171875 -6.21875l0 -23.9375l10.390625 0l0 23.8125q0 8.21875 -4.671875 13.140625q-4.65625 4.921875 -13.921875 4.921875zm23.579819 -41.875l9.96875 0l11.843742 25.390625l11.90625 -25.390625l9.921875 0l0 41.0l-9.6875 0l0 -20.59375l-9.78125 20.59375l-4.703125 0l-9.734367 -20.59375l0 20.59375l-9.734375 0l0 -41.0z" fill-rule="nonzero"/></g></svg>